<svg width="1920" height="895" viewBox="0 0 1920 895" fill="none" xmlns="http://www.w3.org/2000/svg">
<path d="M652.89 410.666C299.443 513.674 405.963 962 101.363 962C-203.237 962 -381.824 846.717 -450.164 410.666C-518.504 -25.3855 155.015 -320 459.615 -320C764.215 -320 1006.34 307.657 652.89 410.666Z" fill="#EEEEEE" fill-opacity="0.06"/>
<path d="M478.89 352.666C125.443 455.674 231.963 904 -72.6371 904C-377.237 904 -555.824 788.717 -624.164 352.666C-692.504 -83.3855 -18.9848 -378 285.615 -378C590.215 -378 832.337 249.657 478.89 352.666Z" fill="#191970" fill-opacity="0.4"/>
<path d="M1536.25 213.785C1688.51 442.766 1984.34 266.849 2052.27 483.982C2120.2 701.116 2077.85 854.131 1782.25 1000.1C1486.66 1146.06 1126.43 731.647 1058.5 514.514C990.57 297.38 1384 -15.1958 1536.25 213.785Z" fill="#EEEEEE" fill-opacity="0.06"/>
<path d="M1533.71 350.756C1685.97 579.737 1981.8 403.819 2049.73 620.953C2117.66 838.086 2075.31 991.102 1779.71 1137.07C1484.12 1283.03 1123.89 868.618 1055.96 651.484C988.031 434.351 1381.46 121.775 1533.71 350.756Z" fill="#191970" fill-opacity="0.4"/>
</svg>
