<svg width="1501" height="1500" viewBox="0 0 1501 1500" fill="none" xmlns="http://www.w3.org/2000/svg">
<g clip-path="url(#clip0_3_34)">
<path opacity="0.4" d="M927.667 1192.42C1232.34 1192.42 1479.33 945.427 1479.33 640.75C1479.33 336.073 1232.34 89.0833 927.667 89.0833C622.99 89.0833 376 336.073 376 640.75C376 945.427 622.99 1192.42 927.667 1192.42Z" fill="#FF0000" stroke="#D40000" stroke-width="20"/>
<path d="M985.083 640.75L1109.67 516.167C1125.37 500.458 1125.37 474.458 1109.67 458.75C1093.96 443.042 1067.96 443.042 1052.25 458.75L927.667 583.333L803.083 458.75C787.375 443.042 761.375 443.042 745.667 458.75C729.958 474.458 729.958 500.458 745.667 516.167L870.25 640.75L745.667 765.333C729.958 781.042 729.958 807.042 745.667 822.75C753.792 830.875 764.083 834.667 774.375 834.667C784.667 834.667 794.958 830.875 803.083 822.75L927.667 698.167L1052.25 822.75C1060.38 830.875 1070.67 834.667 1080.96 834.667C1091.25 834.667 1101.54 830.875 1109.67 822.75C1125.37 807.042 1125.37 781.042 1109.67 765.333L985.083 640.75Z" fill="#FF0000"/>
</g>
<path fill-rule="evenodd" clip-rule="evenodd" d="M676.257 958.371C672.46 957.29 668.623 956.305 664.75 955.417C641.833 851.25 577.667 776.25 486.417 748.333C387.25 717.5 272.25 747.5 200.167 822.917C136.833 889.167 116 980.417 140.583 1077.5C57.2499 1097.92 15.9999 1167.5 11.4166 1233.75C10.9999 1238.33 10.9999 1242.5 10.9999 1246.67C10.9999 1325 62.2499 1412.92 176.417 1421.25H608.917C617.588 1421.25 626.206 1420.78 634.736 1419.84C636.79 1420.07 638.873 1420.26 640.985 1420.41H963.198C1007.28 1420.41 1049.49 1403.96 1081.78 1374.47C1132.37 1330.08 1151 1260.86 1130.51 1193.5C1122.44 1166.8 1109.09 1143.52 1091.4 1124.59C1068.74 1098.82 1038.63 1081.13 1004.79 1073.37C987.721 995.763 939.917 939.888 871.935 919.09C805.672 898.487 729.918 914.343 676.257 958.371Z" fill="#CAD5E7"/>
<defs>
<clipPath id="clip0_3_34">
<rect width="1124" height="1124" fill="white" transform="translate(365.667 78.75)"/>
</clipPath>
</defs>
</svg>
